<svg xmlns="http://www.w3.org/2000/svg" width="200" height="200" viewBox="0 0 200 200">
  <defs>
    <linearGradient id="bgGradient" x1="0%" y1="0%" x2="100%" y2="100%">
      <stop offset="0%" stop-color="#111827"/>
      <stop offset="100%" stop-color="#1e293b"/>
    </linearGradient>
    <linearGradient id="metalGradient" x1="0%" y1="0%" x2="100%" y2="0%">
      <stop offset="0%" stop-color="#e2e8f0"/>
      <stop offset="50%" stop-color="#f8fafc"/>
      <stop offset="100%" stop-color="#e2e8f0"/>
    </linearGradient>
  </defs>

  <circle cx="100" cy="100" r="90" fill="url(#bgGradient)"/>
  
  <rect x="60" y="45" width="80" height="110" rx="8" 
        fill="url(#metalGradient)" stroke="#0f172a" stroke-width="3"/>
  
  <rect x="65" y="50" width="70" height="100" rx="6" 
        fill="none" stroke="#334155" stroke-width="1.5" stroke-dasharray="2 4"/>
  
  <rect x="65" y="55" width="5" height="10" rx="2" fill="#64748b" stroke="#0f172a" stroke-width="1"/>
  <rect x="65" y="95" width="5" height="10" rx="2" fill="#64748b" stroke="#0f172a" stroke-width="1"/>
  <rect x="65" y="135" width="5" height="10" rx="2" fill="#64748b" stroke="#0f172a" stroke-width="1"/>

  <rect x="75" y="57" width="40" height="25" rx="2" fill="#1e293b" stroke="#3b82f6" stroke-width="1"/>
  <line x1="75" y1="64" x2="115" y2="64" stroke="#3b82f6" stroke-width="0.5" stroke-opacity="0.6"/>
  <line x1="75" y1="71" x2="115" y2="71" stroke="#3b82f6" stroke-width="0.5" stroke-opacity="0.6"/>
  <line x1="75" y1="78" x2="115" y2="78" stroke="#3b82f6" stroke-width="0.5" stroke-opacity="0.6"/>
  <text x="78" y="62" font-family="monospace" font-size="5" fill="#3b82f6">01001010</text>
  <text x="78" y="69" font-family="monospace" font-size="5" fill="#3b82f6">10110100</text>
  <text x="78" y="76" font-family="monospace" font-size="5" fill="#3b82f6">01011001</text>
  
  <circle cx="120" cy="100" r="10" fill="#64748b" stroke="#0f172a" stroke-width="2"/>
  <circle cx="120" cy="100" r="6" fill="#94a3b8" stroke="#0f172a" stroke-width="1"/>
  
  <circle cx="90" cy="100" r="15" fill="#f8fafc" stroke="#0f172a" stroke-width="2"/>
  <path d="M90 91 C86 91, 83 94, 83 98 C83 102, 86 105, 90 105 C94 105, 97 102, 97 98 C97 94, 94 91, 90 91 Z" 
        stroke="#0f172a" stroke-width="1" fill="#334155"/>
  <rect x="88" y="98" width="4" height="9" fill="#334155"/>
  
  <rect x="75" y="120" width="45" height="18" rx="2" fill="#1e293b" stroke="#3b82f6" stroke-width="1"/>
  <line x1="75" y1="127" x2="120" y2="127" stroke="#3b82f6" stroke-width="0.5" stroke-opacity="0.6"/>
  <line x1="75" y1="134" x2="120" y2="134" stroke="#3b82f6" stroke-width="0.5" stroke-opacity="0.6"/>
  <text x="78" y="125" font-family="monospace" font-size="5" fill="#3b82f6">10010110</text>
  <text x="78" y="132" font-family="monospace" font-size="5" fill="#3b82f6">01101001</text>
</svg>